<mxfile host="app.diagrams.net" modified="2023-06-28T17:20:57.817Z" agent="Mozilla/5.0 (Windows NT 10.0; Win64; x64) AppleWebKit/537.36 (KHTML, like Gecko) Chrome/114.0.0.0 Safari/537.36" etag="a_ae-VuBp5SKCDxL2RdF" version="21.5.2" type="device">
  <diagram name="PÃ¡gina-1" id="2MZgOhfRn8ZvFPumbPP9">
    <mxGraphModel dx="1900" dy="797" grid="1" gridSize="10" guides="1" tooltips="1" connect="1" arrows="1" fold="1" page="0" pageScale="1" pageWidth="827" pageHeight="1169" math="0" shadow="0">
      <root>
        <mxCell id="0" />
        <mxCell id="1" parent="0" />
        <mxCell id="amzBNt-memYxjhQnmJtF-14" value="" style="edgeStyle=none;curved=1;rounded=0;orthogonalLoop=1;jettySize=auto;html=1;fontSize=12;startSize=8;endSize=8;" edge="1" parent="1" source="amzBNt-memYxjhQnmJtF-1" target="amzBNt-memYxjhQnmJtF-12">
          <mxGeometry relative="1" as="geometry" />
        </mxCell>
        <mxCell id="amzBNt-memYxjhQnmJtF-21" value="" style="edgeStyle=orthogonalEdgeStyle;rounded=0;orthogonalLoop=1;jettySize=auto;html=1;" edge="1" parent="1" source="amzBNt-memYxjhQnmJtF-1" target="amzBNt-memYxjhQnmJtF-20">
          <mxGeometry relative="1" as="geometry" />
        </mxCell>
        <mxCell id="amzBNt-memYxjhQnmJtF-48" style="edgeStyle=orthogonalEdgeStyle;rounded=0;orthogonalLoop=1;jettySize=auto;html=1;exitX=0.5;exitY=0;exitDx=0;exitDy=0;entryX=0.5;entryY=1;entryDx=0;entryDy=0;" edge="1" parent="1" source="amzBNt-memYxjhQnmJtF-1" target="amzBNt-memYxjhQnmJtF-35">
          <mxGeometry relative="1" as="geometry" />
        </mxCell>
        <mxCell id="amzBNt-memYxjhQnmJtF-49" style="edgeStyle=orthogonalEdgeStyle;rounded=0;orthogonalLoop=1;jettySize=auto;html=1;exitX=1;exitY=0;exitDx=0;exitDy=0;entryX=0.5;entryY=1;entryDx=0;entryDy=0;" edge="1" parent="1" source="amzBNt-memYxjhQnmJtF-1" target="amzBNt-memYxjhQnmJtF-34">
          <mxGeometry relative="1" as="geometry" />
        </mxCell>
        <mxCell id="amzBNt-memYxjhQnmJtF-52" style="edgeStyle=orthogonalEdgeStyle;rounded=0;orthogonalLoop=1;jettySize=auto;html=1;exitX=0.25;exitY=0;exitDx=0;exitDy=0;entryX=1;entryY=0.5;entryDx=0;entryDy=0;" edge="1" parent="1" source="amzBNt-memYxjhQnmJtF-1" target="amzBNt-memYxjhQnmJtF-36">
          <mxGeometry relative="1" as="geometry" />
        </mxCell>
        <mxCell id="amzBNt-memYxjhQnmJtF-55" style="edgeStyle=orthogonalEdgeStyle;rounded=0;orthogonalLoop=1;jettySize=auto;html=1;exitX=0;exitY=0.5;exitDx=0;exitDy=0;entryX=1;entryY=0.5;entryDx=0;entryDy=0;" edge="1" parent="1" source="amzBNt-memYxjhQnmJtF-1" target="amzBNt-memYxjhQnmJtF-37">
          <mxGeometry relative="1" as="geometry">
            <Array as="points">
              <mxPoint x="-170" y="200" />
              <mxPoint x="-170" y="150" />
            </Array>
          </mxGeometry>
        </mxCell>
        <mxCell id="amzBNt-memYxjhQnmJtF-56" style="edgeStyle=orthogonalEdgeStyle;rounded=0;orthogonalLoop=1;jettySize=auto;html=1;exitX=0;exitY=0.5;exitDx=0;exitDy=0;entryX=1;entryY=0.5;entryDx=0;entryDy=0;" edge="1" parent="1" source="amzBNt-memYxjhQnmJtF-1" target="amzBNt-memYxjhQnmJtF-39">
          <mxGeometry relative="1" as="geometry" />
        </mxCell>
        <mxCell id="amzBNt-memYxjhQnmJtF-58" style="edgeStyle=orthogonalEdgeStyle;rounded=0;orthogonalLoop=1;jettySize=auto;html=1;exitX=0;exitY=0.5;exitDx=0;exitDy=0;entryX=1;entryY=0.5;entryDx=0;entryDy=0;" edge="1" parent="1" source="amzBNt-memYxjhQnmJtF-1" target="amzBNt-memYxjhQnmJtF-38">
          <mxGeometry relative="1" as="geometry" />
        </mxCell>
        <mxCell id="amzBNt-memYxjhQnmJtF-59" style="edgeStyle=orthogonalEdgeStyle;rounded=0;orthogonalLoop=1;jettySize=auto;html=1;exitX=0;exitY=1;exitDx=0;exitDy=0;entryX=1.002;entryY=0.698;entryDx=0;entryDy=0;entryPerimeter=0;" edge="1" parent="1" source="amzBNt-memYxjhQnmJtF-1" target="amzBNt-memYxjhQnmJtF-40">
          <mxGeometry relative="1" as="geometry">
            <Array as="points">
              <mxPoint x="-100" y="230" />
              <mxPoint x="-100" y="486" />
            </Array>
          </mxGeometry>
        </mxCell>
        <mxCell id="amzBNt-memYxjhQnmJtF-60" style="edgeStyle=orthogonalEdgeStyle;rounded=0;orthogonalLoop=1;jettySize=auto;html=1;exitX=0;exitY=1;exitDx=0;exitDy=0;entryX=1;entryY=0.5;entryDx=0;entryDy=0;" edge="1" parent="1" source="amzBNt-memYxjhQnmJtF-1" target="amzBNt-memYxjhQnmJtF-41">
          <mxGeometry relative="1" as="geometry">
            <Array as="points">
              <mxPoint x="-100" y="230" />
              <mxPoint x="-100" y="560" />
            </Array>
          </mxGeometry>
        </mxCell>
        <mxCell id="amzBNt-memYxjhQnmJtF-61" style="edgeStyle=orthogonalEdgeStyle;rounded=0;orthogonalLoop=1;jettySize=auto;html=1;exitX=0;exitY=1;exitDx=0;exitDy=0;entryX=1;entryY=0.5;entryDx=0;entryDy=0;" edge="1" parent="1" source="amzBNt-memYxjhQnmJtF-1" target="amzBNt-memYxjhQnmJtF-43">
          <mxGeometry relative="1" as="geometry">
            <Array as="points">
              <mxPoint x="-100" y="230" />
              <mxPoint x="-100" y="650" />
            </Array>
          </mxGeometry>
        </mxCell>
        <mxCell id="amzBNt-memYxjhQnmJtF-62" style="edgeStyle=orthogonalEdgeStyle;rounded=0;orthogonalLoop=1;jettySize=auto;html=1;exitX=0;exitY=1;exitDx=0;exitDy=0;entryX=1;entryY=0.5;entryDx=0;entryDy=0;" edge="1" parent="1" source="amzBNt-memYxjhQnmJtF-1" target="amzBNt-memYxjhQnmJtF-45">
          <mxGeometry relative="1" as="geometry">
            <Array as="points">
              <mxPoint x="-100" y="230" />
              <mxPoint x="-100" y="750" />
            </Array>
          </mxGeometry>
        </mxCell>
        <mxCell id="amzBNt-memYxjhQnmJtF-1" value="&lt;b&gt;carreras&lt;/b&gt;" style="rounded=0;whiteSpace=wrap;html=1;fontSize=16;" vertex="1" parent="1">
          <mxGeometry x="-90" y="170" width="120" height="60" as="geometry" />
        </mxCell>
        <mxCell id="amzBNt-memYxjhQnmJtF-13" value="" style="edgeStyle=none;curved=1;rounded=0;orthogonalLoop=1;jettySize=auto;html=1;fontSize=12;startSize=8;endSize=8;" edge="1" parent="1" source="amzBNt-memYxjhQnmJtF-3" target="amzBNt-memYxjhQnmJtF-12">
          <mxGeometry relative="1" as="geometry" />
        </mxCell>
        <mxCell id="amzBNt-memYxjhQnmJtF-66" style="edgeStyle=orthogonalEdgeStyle;rounded=0;orthogonalLoop=1;jettySize=auto;html=1;exitX=0.5;exitY=1;exitDx=0;exitDy=0;entryX=0.5;entryY=0;entryDx=0;entryDy=0;" edge="1" parent="1" source="amzBNt-memYxjhQnmJtF-3" target="amzBNt-memYxjhQnmJtF-65">
          <mxGeometry relative="1" as="geometry" />
        </mxCell>
        <mxCell id="amzBNt-memYxjhQnmJtF-67" style="edgeStyle=orthogonalEdgeStyle;rounded=0;orthogonalLoop=1;jettySize=auto;html=1;exitX=0.5;exitY=0;exitDx=0;exitDy=0;entryX=0.5;entryY=1;entryDx=0;entryDy=0;" edge="1" parent="1" source="amzBNt-memYxjhQnmJtF-3" target="amzBNt-memYxjhQnmJtF-63">
          <mxGeometry relative="1" as="geometry" />
        </mxCell>
        <mxCell id="amzBNt-memYxjhQnmJtF-68" style="edgeStyle=orthogonalEdgeStyle;rounded=0;orthogonalLoop=1;jettySize=auto;html=1;entryX=0;entryY=0.5;entryDx=0;entryDy=0;" edge="1" parent="1" source="amzBNt-memYxjhQnmJtF-3" target="amzBNt-memYxjhQnmJtF-64">
          <mxGeometry relative="1" as="geometry" />
        </mxCell>
        <mxCell id="amzBNt-memYxjhQnmJtF-3" value="&lt;b&gt;tipos_carreras&lt;/b&gt;" style="rounded=0;whiteSpace=wrap;html=1;fontSize=16;" vertex="1" parent="1">
          <mxGeometry x="590" y="170" width="120" height="60" as="geometry" />
        </mxCell>
        <mxCell id="amzBNt-memYxjhQnmJtF-22" value="" style="edgeStyle=orthogonalEdgeStyle;rounded=0;orthogonalLoop=1;jettySize=auto;html=1;" edge="1" parent="1" source="amzBNt-memYxjhQnmJtF-4" target="amzBNt-memYxjhQnmJtF-20">
          <mxGeometry relative="1" as="geometry">
            <Array as="points">
              <mxPoint x="-30" y="820" />
              <mxPoint x="-30" y="820" />
            </Array>
          </mxGeometry>
        </mxCell>
        <mxCell id="amzBNt-memYxjhQnmJtF-29" value="" style="edgeStyle=orthogonalEdgeStyle;rounded=0;orthogonalLoop=1;jettySize=auto;html=1;" edge="1" parent="1" source="amzBNt-memYxjhQnmJtF-4" target="amzBNt-memYxjhQnmJtF-28">
          <mxGeometry relative="1" as="geometry" />
        </mxCell>
        <mxCell id="amzBNt-memYxjhQnmJtF-31" value="" style="edgeStyle=orthogonalEdgeStyle;rounded=0;orthogonalLoop=1;jettySize=auto;html=1;" edge="1" parent="1" source="amzBNt-memYxjhQnmJtF-4" target="amzBNt-memYxjhQnmJtF-30">
          <mxGeometry relative="1" as="geometry" />
        </mxCell>
        <mxCell id="amzBNt-memYxjhQnmJtF-4" value="&lt;b&gt;paises&lt;/b&gt;" style="rounded=0;whiteSpace=wrap;html=1;fontSize=16;" vertex="1" parent="1">
          <mxGeometry x="-90" y="870" width="120" height="60" as="geometry" />
        </mxCell>
        <mxCell id="amzBNt-memYxjhQnmJtF-12" value="pertenece" style="rhombus;whiteSpace=wrap;html=1;fontSize=16;rounded=0;" vertex="1" parent="1">
          <mxGeometry x="265" y="155" width="110" height="90" as="geometry" />
        </mxCell>
        <mxCell id="amzBNt-memYxjhQnmJtF-15" value="1" style="text;html=1;strokeColor=none;fillColor=none;align=center;verticalAlign=middle;whiteSpace=wrap;rounded=0;fontSize=16;" vertex="1" parent="1">
          <mxGeometry x="160" y="150" width="60" height="30" as="geometry" />
        </mxCell>
        <mxCell id="amzBNt-memYxjhQnmJtF-16" value="1" style="text;html=1;strokeColor=none;fillColor=none;align=center;verticalAlign=middle;whiteSpace=wrap;rounded=0;fontSize=16;" vertex="1" parent="1">
          <mxGeometry x="420" y="140" width="60" height="30" as="geometry" />
        </mxCell>
        <mxCell id="amzBNt-memYxjhQnmJtF-20" value="se corre" style="rhombus;whiteSpace=wrap;html=1;fontSize=16;rounded=0;" vertex="1" parent="1">
          <mxGeometry x="-90" y="500" width="120" height="110" as="geometry" />
        </mxCell>
        <mxCell id="amzBNt-memYxjhQnmJtF-23" value="1" style="text;html=1;strokeColor=none;fillColor=none;align=center;verticalAlign=middle;whiteSpace=wrap;rounded=0;fontSize=16;" vertex="1" parent="1">
          <mxGeometry x="-40" y="400" width="60" height="30" as="geometry" />
        </mxCell>
        <mxCell id="amzBNt-memYxjhQnmJtF-24" value="1" style="text;html=1;strokeColor=none;fillColor=none;align=center;verticalAlign=middle;whiteSpace=wrap;rounded=0;fontSize=16;" vertex="1" parent="1">
          <mxGeometry x="-20" y="690" width="60" height="30" as="geometry" />
        </mxCell>
        <mxCell id="amzBNt-memYxjhQnmJtF-28" value="nombre" style="ellipse;whiteSpace=wrap;html=1;fontSize=16;rounded=0;" vertex="1" parent="1">
          <mxGeometry x="-80" y="1000" width="100" height="80" as="geometry" />
        </mxCell>
        <mxCell id="amzBNt-memYxjhQnmJtF-30" value="&lt;i&gt;pais_id&lt;/i&gt;" style="ellipse;whiteSpace=wrap;html=1;fontSize=16;rounded=0;" vertex="1" parent="1">
          <mxGeometry x="80" y="855" width="110" height="90" as="geometry" />
        </mxCell>
        <mxCell id="amzBNt-memYxjhQnmJtF-34" value="&lt;i style=&quot;font-size: 13px;&quot;&gt;carrera_id&lt;/i&gt;" style="ellipse;whiteSpace=wrap;html=1;" vertex="1" parent="1">
          <mxGeometry x="60" width="120" height="80" as="geometry" />
        </mxCell>
        <mxCell id="amzBNt-memYxjhQnmJtF-35" value="nombre" style="ellipse;whiteSpace=wrap;html=1;" vertex="1" parent="1">
          <mxGeometry x="-70" width="120" height="80" as="geometry" />
        </mxCell>
        <mxCell id="amzBNt-memYxjhQnmJtF-37" value="fecha" style="ellipse;whiteSpace=wrap;html=1;" vertex="1" parent="1">
          <mxGeometry x="-340" y="110" width="120" height="80" as="geometry" />
        </mxCell>
        <mxCell id="amzBNt-memYxjhQnmJtF-38" value="mejor_tiempo" style="ellipse;whiteSpace=wrap;html=1;" vertex="1" parent="1">
          <mxGeometry x="-330" y="310" width="120" height="80" as="geometry" />
        </mxCell>
        <mxCell id="amzBNt-memYxjhQnmJtF-39" value="tiempo" style="ellipse;whiteSpace=wrap;html=1;" vertex="1" parent="1">
          <mxGeometry x="-340" y="200" width="120" height="80" as="geometry" />
        </mxCell>
        <mxCell id="amzBNt-memYxjhQnmJtF-40" value="altitud" style="ellipse;whiteSpace=wrap;html=1;" vertex="1" parent="1">
          <mxGeometry x="-330" y="430" width="120" height="80" as="geometry" />
        </mxCell>
        <mxCell id="amzBNt-memYxjhQnmJtF-41" value="lugar" style="ellipse;whiteSpace=wrap;html=1;" vertex="1" parent="1">
          <mxGeometry x="-330" y="520" width="120" height="80" as="geometry" />
        </mxCell>
        <mxCell id="amzBNt-memYxjhQnmJtF-36" value="&lt;i&gt;&lt;u&gt;tipo_carrera&lt;/u&gt;&lt;/i&gt;" style="ellipse;whiteSpace=wrap;html=1;" vertex="1" parent="1">
          <mxGeometry x="-230" width="120" height="80" as="geometry" />
        </mxCell>
        <mxCell id="amzBNt-memYxjhQnmJtF-43" value="&lt;i&gt;&lt;u&gt;pais&lt;/u&gt;&lt;/i&gt;" style="ellipse;whiteSpace=wrap;html=1;" vertex="1" parent="1">
          <mxGeometry x="-330" y="610" width="120" height="80" as="geometry" />
        </mxCell>
        <mxCell id="amzBNt-memYxjhQnmJtF-45" value="foto" style="ellipse;whiteSpace=wrap;html=1;" vertex="1" parent="1">
          <mxGeometry x="-330" y="710" width="120" height="80" as="geometry" />
        </mxCell>
        <mxCell id="amzBNt-memYxjhQnmJtF-63" value="&lt;div style=&quot;color: rgb(204, 204, 204); background-color: rgb(31, 31, 31); font-family: Consolas, &amp;quot;Courier New&amp;quot;, monospace; font-size: 14px; line-height: 19px;&quot;&gt;tipos_carrera&lt;/div&gt;" style="ellipse;whiteSpace=wrap;html=1;" vertex="1" parent="1">
          <mxGeometry x="590" y="30" width="120" height="80" as="geometry" />
        </mxCell>
        <mxCell id="amzBNt-memYxjhQnmJtF-64" value="&lt;div style=&quot;color: rgb(204, 204, 204); background-color: rgb(31, 31, 31); font-family: Consolas, &amp;quot;Courier New&amp;quot;, monospace; font-size: 14px; line-height: 19px;&quot;&gt;Descripcion&lt;/div&gt;" style="ellipse;whiteSpace=wrap;html=1;" vertex="1" parent="1">
          <mxGeometry x="810" y="160" width="120" height="80" as="geometry" />
        </mxCell>
        <mxCell id="amzBNt-memYxjhQnmJtF-65" value="&lt;div style=&quot;color: rgb(204, 204, 204); background-color: rgb(31, 31, 31); font-family: Consolas, &amp;quot;Courier New&amp;quot;, monospace; font-size: 14px; line-height: 19px;&quot;&gt;&lt;div&gt;Distancia&lt;/div&gt;&lt;br&gt;&lt;/div&gt;" style="ellipse;whiteSpace=wrap;html=1;" vertex="1" parent="1">
          <mxGeometry x="590" y="300" width="120" height="80" as="geometry" />
        </mxCell>
      </root>
    </mxGraphModel>
  </diagram>
</mxfile>
